# xmcd
#
# Track frame offsets:
#	150
#	15317
#	30794
#	55369
#	67548
#	80906
#	95116
#	115420
#	131999
#	147188
#	166355
#	179297
#	196824
#	214949
#	230802
#	243116
#	257172
#
# Disc length: 3694 seconds
#
# Revision: 1
# Processed by: cddbd v1.5.2PL0 Copyright (c) Steve Scherf et al.
# Submitted via: audiograbber 1.83.01
#
DISCID=ec0e6c11
DTITLE=Albert West - Amarillo
DYEAR=2005
DGENRE=Pop
TTITLE0=(Is this the way to) Amarillo
TTITLE1=Give a little love (duet with Albert Hammond)
TTITLE2=Congratulations
TTITLE3=We Got It
TTITLE4=Ginny come lately
TTITLE5=Tell Laura I love Her
TTITLE6=Un Poco D'amor (duet with Maryen v. Castro)
TTITLE7=Mocking bird Hill
TTITLE8=Cha la la I need you
TTITLE9=If you go (duet with Josine)
TTITLE10=Walk right back
TTITLE11=One Night in Rio
TTITLE12=Munich Nights
TTITLE13=To all the girls I've loved before
TTITLE14=I love you baby
TTITLE15=Itsy Bitsy Teenie Weenie Yellow Polkadot Bikini
TTITLE16=The Eyes of Jenny
EXTD=
EXTT0=
EXTT1=
EXTT2=
EXTT3=
EXTT4=
EXTT5=
EXTT6=
EXTT7=
EXTT8=
EXTT9=
EXTT10=
EXTT11=
EXTT12=
EXTT13=
EXTT14=
EXTT15=
EXTT16=
PLAYORDER=
